# xmcd
# 
# Track frame offsets:
#     150
#     38181
#     51857
#     63470
#     73684
#     87202
#     101793
#     113743
#     123152
#     132913
#     145758
#     157132
#     165651
#     173713
#     192091
#     205604
#     213353
#     223376
#     232933
#     244100
# 
# Disc length: 3448
# 
# Revision: 0
# Processed by: cddbd v1.5.2PL0 Copyright (c) Steve Scherf et al.
# Submitted via: fre:ac v1.0.31
# 
DISCID=230d7614
DTITLE=Cash, Johnny - Blood, Sweat And Tears - Disc 1
DYEAR=2019
DGENRE=Country
TTITLE0=The Legend Of John Henry´s Hammer
TTITLE1=Tell Him I´m Gone
TTITLE2=Another Man Done Gone
TTITLE3=Busted
TTITLE4=Casey Jones
TTITLE5=Nine Pund Hammer
TTITLE6=Chain Gang
TTITLE7=Waiting For A Train
TTITLE8=Roughneck
TTITLE9=Locomotive Man
TTITLE10=Transfusion Blues
TTITLE11=Tall Man
TTITLE12=Five Feet High And Rising
TTITLE13=The Big Battle
TTITLE14=Tennessee Flat Top Box
TTITLE15=The Old Apache Squaw
TTITLE16=Girl In The Saskatoon
TTITLE17=Smiling Bill McCall
TTITLE18=Remember The Alamo
TTITLE19=Going To Memphis
EXTD=N23,27-AD2019 (T20)
EXTT0=
EXTT1=
EXTT2=
EXTT3=
EXTT4=
EXTT5=
EXTT6=
EXTT7=
EXTT8=
EXTT9=
EXTT10=
EXTT11=
EXTT12=
EXTT13=
EXTT14=
EXTT15=
EXTT16=
EXTT17=
EXTT18=
EXTT19=
PLAYORDER=
